<svg xmlns="http://www.w3.org/2000/svg" xmlns:xlink="http://www.w3.org/1999/xlink" contentStyleType="text/css" data-diagram-type="DESCRIPTION" height="1132px" preserveAspectRatio="none" style="width:494px;height:1132px;background:#FFFFFF;" version="1.1" viewBox="0 0 494 1132" width="494px" zoomAndPan="magnify"><defs/><g><!--cluster System zamawiania i dostaw jedzenia--><g class="cluster" data-entity="System zamawiania i dostaw jedzenia" data-source-line="9" data-uid="ent0006" id="cluster_System zamawiania i dostaw jedzenia"><rect fill="none" height="1119" rx="2.5" ry="2.5" style="stroke:#181818;stroke-width:1;" width="314" x="174" y="7"/><text fill="#000000" font-family="sans-serif" font-size="14" font-weight="bold" lengthAdjust="spacing" textLength="298.8535" x="181.5732" y="21.9951">System zamawiania i dostaw jedzenia</text></g><!--entity UC1--><g class="entity" data-entity="UC1" data-source-line="11" data-uid="ent0007" id="entity_UC1"><ellipse cx="331.2337" cy="60.2467" fill="#F1F1F1" rx="76.7337" ry="17.7467" style="stroke:#181818;stroke-width:0.5;"/><text fill="#000000" font-family="sans-serif" font-size="14" lengthAdjust="spacing" textLength="122.9102" x="269.7786" y="64.8952">Utworzenie konta</text></g><!--entity UC2--><g class="entity" data-entity="UC2" data-source-line="12" data-uid="ent0008" id="entity_UC2"><ellipse cx="331.1191" cy="133.1238" fill="#F1F1F1" rx="91.1191" ry="20.6238" style="stroke:#181818;stroke-width:0.5;"/><text fill="#000000" font-family="sans-serif" font-size="14" lengthAdjust="spacing" textLength="156.2695" x="252.9843" y="137.7722">Sk&#322;adanie zam&#243;wienia</text></g><!--entity UC3--><g class="entity" data-entity="UC3" data-source-line="13" data-uid="ent0009" id="entity_UC3"><ellipse cx="330.8989" cy="209.7798" fill="#F1F1F1" rx="91.8989" ry="20.7798" style="stroke:#181818;stroke-width:0.5;"/><text fill="#000000" font-family="sans-serif" font-size="14" lengthAdjust="spacing" textLength="158.0264" x="251.8857" y="214.4282">Op&#322;acenie zam&#243;wienia</text></g><!--entity UC4--><g class="entity" data-entity="UC4" data-source-line="14" data-uid="ent0010" id="entity_UC4"><ellipse cx="330.9818" cy="292.1964" fill="#F1F1F1" rx="116.4818" ry="25.6964" style="stroke:#181818;stroke-width:0.5;"/><text fill="#000000" font-family="sans-serif" font-size="14" lengthAdjust="spacing" textLength="211.832" x="225.0658" y="296.8448">&#346;ledzenie statusu zam&#243;wienia</text></g><!--entity UC5--><g class="entity" data-entity="UC5" data-source-line="15" data-uid="ent0011" id="entity_UC5"><ellipse cx="331.2072" cy="378.8414" fill="#F1F1F1" rx="119.7072" ry="26.3414" style="stroke:#181818;stroke-width:0.5;"/><text fill="#000000" font-family="sans-serif" font-size="14" lengthAdjust="spacing" textLength="218.7295" x="221.8425" y="383.4899">Zarz&#261;dzanie adresami dostawy</text></g><!--entity UC6--><g class="entity" data-entity="UC6" data-source-line="16" data-uid="ent0012" id="entity_UC6"><ellipse cx="330.8005" cy="466.7601" fill="#F1F1F1" rx="119.3005" ry="26.2601" style="stroke:#181818;stroke-width:0.5;"/><text fill="#000000" font-family="sans-serif" font-size="14" lengthAdjust="spacing" textLength="217.8613" x="221.8699" y="471.4085">Przegl&#261;danie historii zam&#243;wie&#324;</text></g><!--entity UC7--><g class="entity" data-entity="UC7" data-source-line="18" data-uid="ent0013" id="entity_UC7"><ellipse cx="331.1955" cy="555.8391" fill="#F1F1F1" rx="124.6955" ry="27.3391" style="stroke:#181818;stroke-width:0.5;"/><text fill="#000000" font-family="sans-serif" font-size="14" lengthAdjust="spacing" textLength="229.3457" x="216.5226" y="560.4875">Aktualizacja statusu dost&#281;pno&#347;ci</text></g><!--entity UC8--><g class="entity" data-entity="UC8" data-source-line="19" data-uid="ent0014" id="entity_UC8"><ellipse cx="330.7634" cy="642.9527" fill="#F1F1F1" rx="107.7634" ry="23.9527" style="stroke:#181818;stroke-width:0.5;"/><text fill="#000000" font-family="sans-serif" font-size="14" lengthAdjust="spacing" textLength="193.0332" x="234.2468" y="647.6011">Odbi&#243;r zam&#243;wienia z lokalu</text></g><!--entity UC9--><g class="entity" data-entity="UC9" data-source-line="20" data-uid="ent0015" id="entity_UC9"><ellipse cx="330.9795" cy="732.0959" fill="#F1F1F1" rx="135.9795" ry="29.5959" style="stroke:#181818;stroke-width:0.5;"/><text fill="#000000" font-family="sans-serif" font-size="14" lengthAdjust="spacing" textLength="253.1689" x="204.3951" y="736.7443">Dostarczenie zam&#243;wienia do klienta</text></g><!--entity UC10--><g class="entity" data-entity="UC10" data-source-line="22" data-uid="ent0016" id="entity_UC10"><ellipse cx="331.1903" cy="819.9381" fill="#F1F1F1" rx="105.1903" ry="23.4381" style="stroke:#181818;stroke-width:0.5;"/><text fill="#000000" font-family="sans-serif" font-size="14" lengthAdjust="spacing" textLength="187.4346" x="237.473" y="824.5865">Dodanie restauracji/sklepu</text></g><!--entity UC11--><g class="entity" data-entity="UC11" data-source-line="23" data-uid="ent0017" id="entity_UC11"><ellipse cx="330.8192" cy="904.9638" fill="#F1F1F1" rx="120.3192" ry="26.4638" style="stroke:#181818;stroke-width:0.5;"/><text fill="#000000" font-family="sans-serif" font-size="14" lengthAdjust="spacing" textLength="220.0352" x="220.8016" y="909.6123">Zarz&#261;dzanie ofert&#261; produktow&#261;</text></g><!--entity UC12--><g class="entity" data-entity="UC12" data-source-line="25" data-uid="ent0018" id="entity_UC12"><ellipse cx="330.962" cy="995.1924" fill="#F1F1F1" rx="131.462" ry="28.6924" style="stroke:#181818;stroke-width:0.5;"/><text fill="#000000" font-family="sans-serif" font-size="14" lengthAdjust="spacing" textLength="243.6602" x="209.132" y="999.8408">Przypisanie zam&#243;wienia do kuriera</text></g><!--entity UC13--><g class="entity" data-entity="UC13" data-source-line="26" data-uid="ent0019" id="entity_UC13"><ellipse cx="330.8725" cy="1083.9745" fill="#F1F1F1" rx="115.3725" ry="25.4745" style="stroke:#181818;stroke-width:0.5;"/><text fill="#000000" font-family="sans-serif" font-size="14" lengthAdjust="spacing" textLength="209.4531" x="226.1459" y="1088.6229">Rejestrowanie czas&#243;w dostaw</text></g><!--entity klient--><g class="entity" data-entity="klient" data-source-line="4" data-uid="ent0002" id="entity_klient"><ellipse cx="67.9678" cy="221.5" fill="#F1F1F1" rx="8" ry="8" style="stroke:#181818;stroke-width:0.5;"/><path d="M67.9678,229.5 L67.9678,256.5 M54.9678,237.5 L80.9678,237.5 M67.9678,256.5 L54.9678,271.5 M67.9678,256.5 L80.9678,271.5" fill="none" style="stroke:#181818;stroke-width:0.5;"/><text fill="#000000" font-family="sans-serif" font-size="14" lengthAdjust="spacing" textLength="39.9355" x="48" y="285.9951">Klient</text></g><!--entity kurier--><g class="entity" data-entity="kurier" data-source-line="5" data-uid="ent0003" id="entity_kurier"><ellipse cx="68.0342" cy="613.5" fill="#F1F1F1" rx="8" ry="8" style="stroke:#181818;stroke-width:0.5;"/><path d="M68.0342,621.5 L68.0342,648.5 M55.0342,629.5 L81.0342,629.5 M68.0342,648.5 L55.0342,663.5 M68.0342,648.5 L81.0342,663.5" fill="none" style="stroke:#181818;stroke-width:0.5;"/><text fill="#000000" font-family="sans-serif" font-size="14" lengthAdjust="spacing" textLength="42.0684" x="47" y="677.9951">Kurier</text></g><!--entity admin--><g class="entity" data-entity="admin" data-source-line="6" data-uid="ent0004" id="entity_admin"><ellipse cx="67.8413" cy="846.5" fill="#F1F1F1" rx="8" ry="8" style="stroke:#181818;stroke-width:0.5;"/><path d="M67.8413,854.5 L67.8413,881.5 M54.8413,862.5 L80.8413,862.5 M67.8413,881.5 L54.8413,896.5 M67.8413,881.5 L80.8413,896.5" fill="none" style="stroke:#181818;stroke-width:0.5;"/><text fill="#000000" font-family="sans-serif" font-size="14" lengthAdjust="spacing" textLength="95.6826" x="20" y="910.9951">Administrator</text></g><!--entity sys--><g class="entity" data-entity="sys" data-source-line="7" data-uid="ent0005" id="entity_sys"><ellipse cx="67.9355" cy="1003.2969" fill="#F1F1F1" rx="8" ry="8" style="stroke:#181818;stroke-width:0.5;"/><path d="M67.9355,1011.2969 L67.9355,1038.2969 M54.9355,1019.2969 L80.9355,1019.2969 M67.9355,1038.2969 L54.9355,1053.2969 M67.9355,1038.2969 L80.9355,1053.2969" fill="none" style="stroke:#181818;stroke-width:0.5;"/><text fill="#000000" font-family="sans-serif" font-size="14" lengthAdjust="spacing" textLength="52.2061" x="41.8325" y="1067.792">System</text><text fill="#000000" font-family="sans-serif" font-size="14" font-style="italic" lengthAdjust="spacing" textLength="121.8711" x="7" y="991.4951">&#171;Automatyzacja&#187;</text></g><!--link klient to UC1--><g class="link" data-entity-1="klient" data-entity-2="UC1" data-source-line="29" data-uid="lnk20" id="link_klient_UC1"><path d="M82.49,213 C97.31,176.93 124.64,124.06 166,95 C191.97,76.76 219.6132,68.5785 249.6232,64.1885" fill="none" id="klient-to-UC1" style="stroke:#181818;stroke-width:1;"/><polygon fill="#181818" points="255.56,63.32,246.0758,60.6648,250.6127,64.0437,247.2338,68.5806,255.56,63.32" style="stroke:#181818;stroke-width:1;"/></g><!--link klient to UC2--><g class="link" data-entity-1="klient" data-entity-2="UC2" data-source-line="30" data-uid="lnk21" id="link_klient_UC2"><path d="M88.22,230.46 C106.5,212.15 135.66,185.98 166,171 C192.73,157.8 218.3094,150.2811 246.4994,144.5711" fill="none" id="klient-to-UC2" style="stroke:#181818;stroke-width:1;"/><polygon fill="#181818" points="252.38,143.38,242.765,141.2463,247.4795,144.3726,244.3532,149.0871,252.38,143.38" style="stroke:#181818;stroke-width:1;"/></g><!--link klient to UC3--><g class="link" data-entity-1="klient" data-entity-2="UC3" data-source-line="31" data-uid="lnk22" id="link_klient_UC3"><path d="M88.19,247.99 C122.8,242.55 191.4727,231.7609 248.7127,222.7709" fill="none" id="klient-to-UC3" style="stroke:#181818;stroke-width:1;"/><polygon fill="#181818" points="254.64,221.84,245.1284,219.2848,249.7006,222.6158,246.3696,227.188,254.64,221.84" style="stroke:#181818;stroke-width:1;"/></g><!--link klient to UC4--><g class="link" data-entity-1="klient" data-entity-2="UC4" data-source-line="32" data-uid="lnk23" id="link_klient_UC4"><path d="M88.19,254.01 C119.09,258.87 175.9427,267.7986 229.7827,276.2586" fill="none" id="klient-to-UC4" style="stroke:#181818;stroke-width:1;"/><polygon fill="#181818" points="235.71,277.19,227.44,271.8414,230.7706,276.4139,226.1982,279.7445,235.71,277.19" style="stroke:#181818;stroke-width:1;"/></g><!--link klient to UC5--><g class="link" data-entity-1="klient" data-entity-2="UC5" data-source-line="33" data-uid="lnk24" id="link_klient_UC5"><path d="M88.14,272.35 C106.37,291.43 135.5,318.81 166,335 C188.26,346.82 208.1543,354.0975 232.4943,360.6175" fill="none" id="klient-to-UC5" style="stroke:#181818;stroke-width:1;"/><polygon fill="#181818" points="238.29,362.17,230.6315,355.9775,233.4603,360.8763,228.5615,363.705,238.29,362.17" style="stroke:#181818;stroke-width:1;"/></g><!--link klient to UC6--><g class="link" data-entity-1="klient" data-entity-2="UC6" data-source-line="34" data-uid="lnk25" id="link_klient_UC6"><path d="M80.62,289.05 C94.59,328.39 121.85,388.75 166,423 C184.17,437.09 200.7319,444.9934 222.9919,451.5134" fill="none" id="klient-to-UC6" style="stroke:#181818;stroke-width:1;"/><polygon fill="#181818" points="228.75,453.2,221.2372,446.8314,223.9516,451.7945,218.9885,454.5089,228.75,453.2" style="stroke:#181818;stroke-width:1;"/></g><!--link kurier to UC7--><g class="link" data-entity-1="kurier" data-entity-2="UC7" data-source-line="36" data-uid="lnk26" id="link_kurier_UC7"><path d="M89.11,633.3 C108.5,624.19 138.82,610.56 166,601 C191.9,591.89 214.8373,585.0237 240.9173,577.9837" fill="none" id="kurier-to-UC7" style="stroke:#181818;stroke-width:1;"/><polygon fill="#181818" points="246.71,576.42,236.9786,574.9037,241.8828,577.7231,239.0634,582.6273,246.71,576.42" style="stroke:#181818;stroke-width:1;"/></g><!--link kurier to UC8--><g class="link" data-entity-1="kurier" data-entity-2="UC8" data-source-line="37" data-uid="lnk27" id="link_kurier_UC8"><path d="M89.05,643 C117.75,643 166.66,643 216.81,643" fill="none" id="kurier-to-UC8" style="stroke:#181818;stroke-width:1;"/><polygon fill="#181818" points="222.81,643,213.81,639,217.81,643,213.81,647,222.81,643" style="stroke:#181818;stroke-width:1;"/></g><!--link kurier to UC9--><g class="link" data-entity-1="kurier" data-entity-2="UC9" data-source-line="38" data-uid="lnk28" id="link_kurier_UC9"><path d="M89.17,652.33 C108.6,661.13 138.96,674.36 166,684 C191.29,693.01 213.4376,699.9784 238.9476,707.3784" fill="none" id="kurier-to-UC9" style="stroke:#181818;stroke-width:1;"/><polygon fill="#181818" points="244.71,709.05,237.1807,702.701,239.908,707.657,234.9519,710.3843,244.71,709.05" style="stroke:#181818;stroke-width:1;"/></g><!--link admin to UC10--><g class="link" data-entity-1="admin" data-entity-2="UC10" data-source-line="40" data-uid="lnk29" id="link_admin_UC10"><path d="M116.27,865.86 C154.83,857.59 204.1636,846.999 248.8036,837.419" fill="none" id="admin-to-UC10" style="stroke:#181818;stroke-width:1;"/><polygon fill="#181818" points="254.67,836.16,245.031,834.1375,249.7813,837.2091,246.7097,841.9594,254.67,836.16" style="stroke:#181818;stroke-width:1;"/></g><!--link admin to UC11--><g class="link" data-entity-1="admin" data-entity-2="UC11" data-source-line="41" data-uid="lnk30" id="link_admin_UC11"><path d="M116.27,881.25 C146.09,884.57 179.8968,888.3169 217.0368,892.4469" fill="none" id="admin-to-UC11" style="stroke:#181818;stroke-width:1;"/><polygon fill="#181818" points="223,893.11,214.4972,888.1398,218.0306,892.5574,213.6131,896.0908,223,893.11" style="stroke:#181818;stroke-width:1;"/></g><!--link sys to UC12--><g class="link" data-entity-1="sys" data-entity-2="UC12" data-source-line="43" data-uid="lnk31" id="link_sys_UC12"><path d="M130.19,1017.97 C155.36,1015.07 179.3994,1012.3163 208.4094,1008.9763" fill="none" id="sys-to-UC12" style="stroke:#181818;stroke-width:1;"/><polygon fill="#181818" points="214.37,1008.29,204.9716,1005.3456,209.4028,1008.8619,205.8866,1013.2931,214.37,1008.29" style="stroke:#181818;stroke-width:1;"/></g><!--link sys to UC13--><g class="link" data-entity-1="sys" data-entity-2="UC13" data-source-line="44" data-uid="lnk32" id="link_sys_UC13"><path d="M130.19,1038.83 C165.75,1046.87 205.1274,1055.7781 243.5574,1064.4581" fill="none" id="sys-to-UC13" style="stroke:#181818;stroke-width:1;"/><polygon fill="#181818" points="249.41,1065.78,241.5124,1059.8954,244.5329,1064.6784,239.7499,1067.6989,249.41,1065.78" style="stroke:#181818;stroke-width:1;"/></g><!--SRC=[TLD1Rjim4Bpp5GlVWyPsqgH0OC1eRZcqg95BRrk9STQaH85SGP2ANehw4MsVaIV4_bSfIZJ4m0Lqu71dkBD3Iiid1ZPWQVlCa9EL6PCfXLDKLcYnW0epXLkvuLPBwCjORhKK0ZCs5cOFccJ9Cq07AYnFXTgIj4CXB6DXdHTKacEB7eOwzZknl6aTooBikzR1tTswPbCWjnrcErojX1WTHIfqM613M182GMuSOmCxcNVIxypWkm3mN-raXiwB7hanjgz9KAPa39qUFywdd8qw_iGSUuu__FMbeU6im5nCcPygpypaUUPooZp-qOCd2TuXrwu-exYQAhwYxGxxl0i-CBVIOH47R4V1zLJmsS-rrLuI5Cy-OsE9JcsElqRHUp5LhHNNg2d4UxBMTpdyhafp_9lHABj91i-_qUkBdSu07MYZKDSZ_tRAl-zjswnx6vNlD3wScC47aUg6QVpqZBNr9kcTKrfMiSlyyh-PcITf-R27ofgyLcoQmpwAvk9DS6r53izv2s_tz4gIo_yYTzwLDKqGPXqwhnmlA0gMueSGmu1mSR4ABos1YnGkKtYLmkiK-eiS_8tu9eMtAVJ1XZyj-hXCeO-a_-56j9Y2vJy0]--></g></svg>